<svg width="227" height="40" viewBox="0 0 227 40" fill="none" xmlns="http://www.w3.org/2000/svg">
<g clip-path="url(#clip0_301_5)">
<path d="M21.1496 0H13.2691L5.62513 20.3593C2.87247 22.4668 0 25.1201 0 25.1201C1.35686 24.2135 3.24388 23.1885 5.03805 22.2758C6.54468 21.5116 8.02435 20.796 9.46807 20.1319C9.52797 20.1046 9.59087 20.0773 9.64479 20.05C11.1454 19.3647 12.6101 18.734 14.0269 18.1639L17.1869 9.40035L19.7029 16.4415C22.18 15.6046 24.6841 15.4135 26.7748 14.8798L21.1496 0Z" fill="#4184C5"/>
<path d="M6.10352e-05 35.3391H7.83271L8.6624 33.0345C10.4116 28.1827 13.4968 23.9314 17.5853 20.8414C17.9957 20.5321 18.2263 20.3744 18.2263 20.3744C18.2173 20.3805 18.2053 20.3865 18.1964 20.3896L18.2263 20.3744C5.33165 25.3535 6.10352e-05 35.3391 6.10352e-05 35.3391Z" fill="#4184C5"/>
<path d="M34.4188 16.6446C25.9721 17.3299 20.6854 19.2646 20.6854 19.2646L21.4193 21.3357L26.3884 35.3392H34.4188L28.0987 18.5035C31.5732 17.3057 34.4188 16.6416 34.4188 16.6416V16.6446Z" fill="#4184C5"/>
<path d="M21.6379 32.9436H21.6439L17.6932 26.5726L13.8802 32.7253C13.8682 32.7435 13.8562 32.7647 13.8442 32.7829L13.7454 32.9436H13.7484C13.332 33.6441 13.0894 34.4629 13.0894 35.3392C13.0894 37.9137 15.1502 40 17.6932 40C20.2361 40 22.2969 37.9137 22.2969 35.3392C22.2969 34.4629 22.0543 33.6441 21.6379 32.9436Z" fill="white"/>
<path d="M15.8061 37.6074C16.4149 37.6074 16.9084 37.1078 16.9084 36.4915C16.9084 35.8752 16.4149 35.3756 15.8061 35.3756C15.1974 35.3756 14.7039 35.8752 14.7039 36.4915C14.7039 37.1078 15.1974 37.6074 15.8061 37.6074Z" fill="white"/>
<path d="M96.7684 10.1916L89.6906 19.9559L97.4244 29.8657V30.1264H91.3739L85.4373 22.2969V30.1264H80.558V9.90356H85.4373V17.7604L90.9726 9.90356H96.7654V10.1916H96.7684Z" fill="white"/>
<path d="M106.74 30.1264V14.2944H101.345V9.6731H116.984V14.2944H111.619V30.1264H106.74Z" fill="white"/>
<path d="M152.154 25.7629C154.466 25.7356 156.749 24.3468 157.375 21.6328H162.311C161.568 26.9182 157.288 30.4146 152.094 30.4146C146.388 30.4146 141.763 25.9934 141.763 20.0439C141.763 14.0943 146.385 9.58521 152.094 9.58521C157.231 9.58521 161.652 13.1088 162.281 18.3093H157.345C156.689 15.653 154.406 14.3218 152.151 14.2945C149.383 14.2672 146.616 16.1715 146.616 20.0439C146.616 23.9162 149.383 25.7932 152.151 25.7629H152.154Z" fill="#4184C5"/>
<path d="M178.219 9.58521C183.925 9.58521 188.577 14.0913 188.577 20.0439C188.577 25.9964 183.925 30.4146 178.219 30.4146C172.513 30.4146 167.888 25.9934 167.888 20.0439C167.888 14.0943 172.51 9.58521 178.219 9.58521ZM178.105 25.7356C180.873 25.7629 183.67 23.8586 183.67 20.0439C183.67 16.2291 180.873 14.2672 178.105 14.3248C175.394 14.3824 172.741 16.2595 172.741 20.0439C172.741 23.8283 175.394 25.7053 178.105 25.7356Z" fill="#4184C5"/>
<path d="M218.727 25.3596H227.003V30.1264H213.821V9.73071H226.976V14.4976H218.73V17.3298H226.805V22.127H218.73V25.3626L218.727 25.3596Z" fill="#4184C5"/>
<path d="M203.547 22.7881C206.114 21.5448 207.399 19.0037 207.456 16.5778C207.513 13.1967 205.2 9.73071 200.579 9.73071H190.188L192.815 14.0397L193.079 14.4703H200.465C201.977 14.4703 202.72 15.656 202.69 16.7234C202.66 17.7331 201.891 18.8036 200.465 18.8036H195.723L198.455 23.2824H198.467L202.633 30.1295H208.477L203.544 22.7911L203.547 22.7881Z" fill="#4184C5"/>
<path d="M67.7412 9.6731H64.2607L56.2693 30.1264H61.493L66.0279 17.818L67.5705 22.2119L67.6843 22.5576H66.0279L64.5093 27.1517H69.4245L70.5388 30.1264H76.0441L67.7412 9.6731Z" fill="white"/>
<path d="M130.504 9.6731H127.024L119.032 30.1264H124.256L128.791 17.818L130.333 22.2119L130.447 22.5576H128.791L127.272 27.1517H132.188L133.302 30.1264H138.807L130.504 9.6731Z" fill="white"/>
</g>
<defs>
<clipPath id="clip0_301_5">
<rect width="227" height="40" fill="white"/>
</clipPath>
</defs>
</svg>
