<svg width="200" height="49" viewBox="0 0 200 49" fill="none" xmlns="http://www.w3.org/2000/svg">
<path d="M17.0201 38.4104L9.87594 31.2663C7.9098 29.3001 6.92476 26.9232 6.95096 24.1354C6.97716 21.3476 7.9662 18.9478 9.96323 16.9508L17.1192 9.79474L24.2183 16.8938C26.1695 18.845 27.1394 21.237 27.1282 24.0398C27.1219 25.607 26.7696 27.0399 26.1314 28.3685L17.0962 19.3333L17.0569 29.1883L26.5123 38.6437L29.7348 35.4213C31.3082 33.8478 32.5063 31.9293 33.1326 29.8022L33.148 29.7268C33.8663 27.2075 34.2685 24.5839 33.9625 21.9783C33.5109 18.0773 31.9119 14.7535 29.1353 11.9769L17.1583 0L5.07028 12.0881C2.83119 14.3272 1.32909 16.9099 0.579102 19.8211C-0.170881 22.7323 -0.197561 25.6407 0.529202 28.546C1.25596 31.4514 2.72248 34.0072 4.92876 36.2134L13.0635 44.3481L16.9661 48.16L17.0049 38.4255L17.0201 38.4104Z" fill="#1FAB7C"/>
<path d="M186.186 35.8721C185.411 35.8721 184.706 35.6781 184.073 35.2902C183.44 34.9022 182.93 34.3917 182.542 33.7587C182.154 33.1257 181.96 32.4213 181.96 31.6454V22.3342C181.96 21.5583 182.154 20.8538 182.542 20.2208C182.93 19.5878 183.44 19.0773 184.073 18.6894C184.706 18.3014 185.411 18.1074 186.186 18.1074H195.773C196.549 18.1074 197.254 18.3014 197.887 18.6894C198.54 19.0773 199.051 19.5878 199.418 20.2208C199.806 20.8538 200 21.5583 200 22.3342V29.0113H185.972V31.4922C185.972 31.5943 186.003 31.6862 186.064 31.7679C186.146 31.8291 186.238 31.8598 186.34 31.8598H200V35.8721H186.186ZM185.972 25.3971H195.988V22.4873C195.988 22.3852 195.947 22.3036 195.865 22.2423C195.804 22.1606 195.722 22.1198 195.62 22.1198H186.34C186.238 22.1198 186.146 22.1606 186.064 22.2423C186.003 22.3036 185.972 22.3852 185.972 22.4873V25.3971Z" fill="#112444"/>
<path d="M172.818 35.8722C172.042 35.8722 171.337 35.6782 170.704 35.2902C170.071 34.9022 169.561 34.3918 169.173 33.7588C168.785 33.1258 168.591 32.4213 168.591 31.6454V12.6555H172.603V18.1074H179.525V22.1198H172.603V31.4922C172.603 31.5943 172.634 31.6862 172.695 31.7679C172.777 31.8291 172.869 31.8598 172.971 31.8598H179.525V35.8722H172.818Z" fill="#112444"/>
<path d="M161.352 35.872V18.1073H165.364V35.872H161.352ZM161.352 16.3308V12.2878H165.364V16.3308H161.352Z" fill="#112444"/>
<path d="M140.087 35.8721V18.1074H153.9C154.676 18.1074 155.381 18.3014 156.014 18.6894C156.667 19.0773 157.177 19.5878 157.545 20.2208C157.933 20.8538 158.127 21.5583 158.127 22.3342V35.8721H154.115V22.4873C154.115 22.3852 154.074 22.3036 153.992 22.2423C153.931 22.1606 153.849 22.1198 153.747 22.1198H144.466C144.364 22.1198 144.272 22.1606 144.191 22.2423C144.13 22.3036 144.099 22.3852 144.099 22.4873V35.8721H140.087Z" fill="#112444"/>
<path d="M123.015 35.8721C122.239 35.8721 121.534 35.6781 120.901 35.2902C120.268 34.9022 119.758 34.3917 119.37 33.7587C118.982 33.1257 118.788 32.4213 118.788 31.6454V22.3342C118.788 21.5583 118.982 20.8538 119.37 20.2208C119.758 19.5878 120.268 19.0773 120.901 18.6894C121.534 18.3014 122.239 18.1074 123.015 18.1074H132.601C133.377 18.1074 134.082 18.3014 134.715 18.6894C135.368 19.0773 135.879 19.5878 136.246 20.2208C136.634 20.8538 136.828 21.5583 136.828 22.3342V29.0113H122.8V31.4922C122.8 31.5943 122.831 31.6862 122.892 31.7679C122.974 31.8291 123.066 31.8598 123.168 31.8598H136.828V35.8721H123.015ZM122.8 25.3971H132.816V22.4873C132.816 22.3852 132.775 22.3036 132.693 22.2423C132.632 22.1606 132.55 22.1198 132.448 22.1198H123.168C123.066 22.1198 122.974 22.1606 122.892 22.2423C122.831 22.3036 122.8 22.3852 122.8 22.4873V25.3971Z" fill="#112444"/>
<path d="M104.369 35.8721L94.5981 18.1074H99.2231L106.237 31.0022L113.22 18.1074H117.845L108.044 35.8721H104.369Z" fill="#112444"/>
<path d="M79.4948 35.8721C78.7189 35.8721 78.0042 35.6781 77.3508 35.2902C76.7178 34.9022 76.2073 34.3917 75.8194 33.7587C75.4518 33.1257 75.2681 32.4213 75.2681 31.6454V24.9683H89.2961V22.4873C89.2961 22.3852 89.2552 22.3036 89.1735 22.2423C89.1123 22.1606 89.0306 22.1198 88.9285 22.1198H75.2681V18.1074H89.0817C89.8576 18.1074 90.5621 18.3014 91.195 18.6894C91.8485 19.0773 92.3589 19.5878 92.7265 20.2208C93.1144 20.8538 93.3084 21.5583 93.3084 22.3342V35.8721H79.4948ZM79.648 31.8598H89.2961V28.5825H79.2804V31.4922C79.2804 31.5943 79.3111 31.6862 79.3723 31.7679C79.454 31.8291 79.5459 31.8598 79.648 31.8598Z" fill="#112444"/>
<path d="M67.6968 35.872L61.0503 27.9391H66.3491L72.1073 34.7387V35.872H67.6968ZM50.1158 35.872V13.8499H67.8806C68.6565 13.8499 69.3712 14.0438 70.0246 14.4318C70.678 14.8198 71.1987 15.3405 71.5866 15.9939C71.9746 16.6269 72.1686 17.3313 72.1686 18.1073V24.0492C72.1686 24.8252 71.9746 25.5398 71.5866 26.1933C71.1987 26.8467 70.678 27.3674 70.0246 27.7553C69.3712 28.1229 68.6565 28.3066 67.8806 28.3066L54.1588 28.3373V35.872H50.1158ZM54.5264 24.233H67.6968C67.7989 24.233 67.8908 24.2024 67.9724 24.1411C68.0541 24.0799 68.095 23.9982 68.095 23.8961V18.2604C68.095 18.1583 68.0541 18.0766 67.9724 18.0154C67.8908 17.9337 67.7989 17.8929 67.6968 17.8929H54.5264C54.4243 17.8929 54.3324 17.9337 54.2507 18.0154C54.1895 18.0766 54.1588 18.1583 54.1588 18.2604V23.8961C54.1588 23.9982 54.1895 24.0799 54.2507 24.1411C54.3324 24.2024 54.4243 24.233 54.5264 24.233Z" fill="#112444"/>
</svg>
